<?xml version="1.0" encoding="utf-8"?>
<!-- Generator: Adobe Illustrator 22.0.0, SVG Export Plug-In . SVG Version: 6.00 Build 0)  -->
<svg version="1.1" id="Laag_1" xmlns="http://www.w3.org/2000/svg" xmlns:xlink="http://www.w3.org/1999/xlink" x="0px" y="0px"
	 viewBox="0 0 24 24" enable-background="new 0 0 24 24" xml:space="preserve">
<g>
	<path fill="#FFFFFF" d="M12,2c2.137,0,4.146,0.832,5.657,2.343c3.119,3.119,3.119,8.195,0,11.314
		c-1.288,1.288-3.997,3.934-5.657,5.552c-1.66-1.618-4.369-4.264-5.657-5.552c-3.119-3.119-3.119-8.195,0-11.314
		C7.854,2.832,9.863,2,12,2 M12,0C9.441,0,6.882,0.976,4.929,2.929c-3.905,3.905-3.905,10.237,0,14.142C6.882,19.024,12,24,12,24
		s5.118-4.976,7.071-6.929c3.905-3.905,3.905-10.237,0-14.142C17.118,0.976,14.559,0,12,0L12,0z"/>
</g>
</svg>
