<?xml version="1.0" encoding="utf-8"?>
<!-- Generator: Adobe Illustrator 22.0.0, SVG Export Plug-In . SVG Version: 6.00 Build 0)  -->
<svg version="1.1" id="Laag_1" xmlns="http://www.w3.org/2000/svg" xmlns:xlink="http://www.w3.org/1999/xlink" x="0px" y="0px"
	 viewBox="0 0 24 24" style="enable-background:new 0 0 24 24;" xml:space="preserve">
<style type="text/css">
	.st0{fill:#41A0F0;}
</style>
<g>
	<path class="st0" d="M5,4.5C5,4.775,4.775,5,4.5,5h-4C0.225,5,0,4.775,0,4.5v-4C0,0.225,0.225,0,0.5,0h4C4.775,0,5,0.225,5,0.5V4.5
		z"/>
</g>
<g>
	<path class="st0" d="M14.5,4.5C14.5,4.775,14.275,5,14,5h-4C9.725,5,9.5,4.775,9.5,4.5v-4C9.5,0.225,9.725,0,10,0h4
		c0.275,0,0.5,0.225,0.5,0.5V4.5z"/>
</g>
<g>
	<path class="st0" d="M24,4.5C24,4.775,23.775,5,23.5,5h-4C19.225,5,19,4.775,19,4.5v-4C19,0.225,19.225,0,19.5,0h4
		C23.775,0,24,0.225,24,0.5V4.5z"/>
</g>
<g>
	<path class="st0" d="M5,14c0,0.275-0.225,0.5-0.5,0.5h-4C0.225,14.5,0,14.275,0,14v-4c0-0.275,0.225-0.5,0.5-0.5h4
		C4.775,9.5,5,9.725,5,10V14z"/>
</g>
<g>
	<path class="st0" d="M14.5,14c0,0.275-0.225,0.5-0.5,0.5h-4c-0.275,0-0.5-0.225-0.5-0.5v-4c0-0.275,0.225-0.5,0.5-0.5h4
		c0.275,0,0.5,0.225,0.5,0.5V14z"/>
</g>
<g>
	<path class="st0" d="M24,14c0,0.275-0.225,0.5-0.5,0.5h-4c-0.275,0-0.5-0.225-0.5-0.5v-4c0-0.275,0.225-0.5,0.5-0.5h4
		c0.275,0,0.5,0.225,0.5,0.5V14z"/>
</g>
<g>
	<path class="st0" d="M5,23.5C5,23.775,4.775,24,4.5,24h-4C0.225,24,0,23.775,0,23.5v-4C0,19.225,0.225,19,0.5,19h4
		C4.775,19,5,19.225,5,19.5V23.5z"/>
</g>
<g>
	<path class="st0" d="M14.5,23.5c0,0.275-0.225,0.5-0.5,0.5h-4c-0.275,0-0.5-0.225-0.5-0.5v-4c0-0.275,0.225-0.5,0.5-0.5h4
		c0.275,0,0.5,0.225,0.5,0.5V23.5z"/>
</g>
<g>
	<path class="st0" d="M24,23.5c0,0.275-0.225,0.5-0.5,0.5h-4c-0.275,0-0.5-0.225-0.5-0.5v-4c0-0.275,0.225-0.5,0.5-0.5h4
		c0.275,0,0.5,0.225,0.5,0.5V23.5z"/>
</g>
</svg>
