<?xml version="1.0" encoding="utf-8"?>
<!-- Generator: Adobe Illustrator 22.0.0, SVG Export Plug-In . SVG Version: 6.00 Build 0)  -->
<svg version="1.1" id="Laag_1" xmlns="http://www.w3.org/2000/svg" xmlns:xlink="http://www.w3.org/1999/xlink" x="0px" y="0px"
	 viewBox="0 0 24 24" style="enable-background:new 0 0 24 24;" xml:space="preserve">
<style type="text/css">
	.st0{fill:#41A0F0;}
</style>
<g>
	<path class="st0" d="M24,3.032C24,3.29,23.79,3.5,23.532,3.5H0.468C0.21,3.5,0,3.29,0,3.032V0.468C0,0.21,0.21,0,0.468,0h23.065
		C23.79,0,24,0.21,24,0.468V3.032z"/>
</g>
<g>
	<path class="st0" d="M24,13.282c0,0.257-0.21,0.468-0.468,0.468H0.468C0.21,13.75,0,13.54,0,13.282v-2.565
		c0-0.257,0.21-0.468,0.468-0.468h23.065c0.257,0,0.468,0.21,0.468,0.468V13.282z"/>
</g>
<g>
	<path class="st0" d="M24,23.532C24,23.79,23.79,24,23.532,24H0.468C0.21,24,0,23.79,0,23.532v-2.565C0,20.71,0.21,20.5,0.468,20.5
		h23.065C23.79,20.5,24,20.71,24,20.968V23.532z"/>
</g>
</svg>
