<?xml version="1.0" encoding="utf-8"?>
<!-- Generator: Adobe Illustrator 22.0.0, SVG Export Plug-In . SVG Version: 6.00 Build 0)  -->
<svg version="1.1" id="Laag_1" xmlns="http://www.w3.org/2000/svg" xmlns:xlink="http://www.w3.org/1999/xlink" x="0px" y="0px"
	 viewBox="0 0 2764 1621" enable-background="new 0 0 2764 1621" xml:space="preserve">
<title>MacBook Pro TouchBar 15 inches Space Gray</title>
<desc>Created with Sketch.</desc>
<g id="Mac">
	<g id="MacBook-Pro-Touch-Bar-15-inches" transform="translate(-619.000000, -190.000000)">
		<g id="MacBook-Pro-TouchBar-15-inches-Space-Gray" transform="translate(619.000000, 190.000000)">
			<g id="MacBook-Pro-13-Screen" transform="translate(236.000000, 0.000000)">
				<g id="Frames">
					<g id="Group">
						<path id="Metal-Frame" fill="#9D9D9D" d="M67.749,0h2155.785c37.003,0,67,29.997,67,67v1446.856c0,37.003-29.997,67-67,67
							H67.749c-37.003,0-67-29.997-67-67V67C0.749,29.997,30.746,0,67.749,0z"/>
						<path id="Plastic-Band" fill="#4D4D4D" d="M66.734,4h2156.809c34.242,0,62,27.758,62,62v1448.017c0,34.242-27.758,62-62,62
							H66.734c-34.242,0-62-27.758-62-62V66C4.734,31.758,32.492,4,66.734,4z"/>
						<path id="Black-Frame" fill="#343434" d="M68.715,9h2153.833c32.585,0,59,26.415,59,59v1445.179c0,32.585-26.415,59-59,59
							H68.715c-32.585,0-59-26.415-59-59V68C9.715,35.415,36.13,9,68.715,9z"/>
					</g>
					<path id="Plastic-Band_1_" fill="#3E3E3E" d="M2281.55,1481v32.876c0,32.581-26.419,58.994-59.01,58.994H69.011
						c-32.591,0-59.011-26.418-59.011-58.994V1481H2281.55z"/>
				</g>
				<g id="Screen" transform="translate(66.000000, 96.000000)">
					<rect id="Screen---Off" fill="#343434" width="2160" height="1350"/>
				</g>
			</g>
			<g id="MacBook-Pro-13-Body" transform="translate(0.000000, 1541.000000)">
				<path id="Bottom-Body" fill="#838383" d="M0,40h2763.75c-18.839,20.57-86.046,39.628-134.227,39.628h-2495.3
					C86.046,79.628,18.839,60.57,0,40z"/>
				<polygon id="Top-Body" fill="#9D9D9D" points="0,39.578 0,0 2763.61,0 2763.61,39.578 				"/>
				<path id="Hollow" fill="#707070" d="M1206.46,32.25c-13.177,0-26.846-16.55-26.846-31.959h406.516
					c0,15.409-13.669,31.959-26.846,31.959H1206.46L1206.46,32.25z"/>
			</g>
		</g>
	</g>
</g>
</svg>
